<?xml version="1.0" encoding="UTF-8"?>
<svg id="Layer_1" data-name="Layer 1" xmlns="http://www.w3.org/2000/svg" xmlns:xlink="http://www.w3.org/1999/xlink" width="29" height="28" viewBox="0 0 407.4 487.64">
  <defs>
    <style>
      .cls-1 {
        fill: url(#linear-gradient);
        stroke-width: 0px;
      }
    </style>
    <linearGradient id="linear-gradient" x1="203.7" y1="35.89" x2="203.7" y2="814.96" gradientTransform="translate(0 660.38) scale(1 -1)" gradientUnits="userSpaceOnUse">
      <stop offset="0" stop-color="#4ba0ea"/>
      <stop offset=".36" stop-color="#5fabed"/>
      <stop offset=".62" stop-color="#5fabed"/>
      <stop offset="1" stop-color="#b0d5f6"/>
    </linearGradient>
  </defs>
  <path class="cls-1" d="M229.59,216.39l138.38,161.5v-84.51c-26.32-11.48-48.97-29.12-66.37-50.93-16.27-20.42-27.96-44.53-33.74-70.71l-38.27,44.65h0ZM139.54,171.74c-5.79,26.18-17.47,50.29-33.75,70.71-17.4,21.81-40.05,39.45-66.37,50.93v84.51l138.39-161.5-38.27-44.65h0ZM39.42,249.19c13.71-8.28,25.73-18.88,35.57-31.23,11.23-14.07,19.63-30.37,24.5-48.03h-8.13c-13.61,0-26.2,6.95-35.51,18.15-10.14,12.18-16.43,29.26-16.43,48.28v12.83h0ZM203.7,246.61L0,484.31v-247.95c0-28.35,9.83-54.35,25.67-73.38,16.66-20.03,39.9-32.47,65.69-32.47h43.77L203.7,0l17.4,33.12,51.17,97.39h43.76c25.8,0,49.04,12.44,65.7,32.47,15.84,19.03,25.67,45.03,25.67,73.38v247.95l-203.7-237.7h0ZM367.97,249.19v-12.83c0-19.02-6.29-36.1-16.42-48.28-9.31-11.2-21.9-18.15-35.52-18.15h-8.12c4.87,17.65,13.27,33.96,24.49,48.03,9.84,12.34,21.86,22.95,35.57,31.23h0ZM203.7,448.22c12.2,0,23.73-3.43,33.94-9.53,7.46-4.46,14.3-10.33,20.28-17.34l-54.22-67.39-54.22,67.39c5.98,7.01,12.82,12.88,20.28,17.34,10.21,6.1,21.73,9.53,33.94,9.53h0ZM257.81,472.42c-16.31,9.74-34.69,15.22-54.11,15.22s-37.8-5.48-54.12-15.22c-16.43-9.82-30.63-23.99-41.49-41.19l-7.48-11.86,103.09-128.14,103.09,128.14-7.49,11.86c-10.86,17.2-25.05,31.37-41.49,41.19ZM236.8,147.57l-33.1-63-33.1,63,33.1,38.61,33.1-38.61Z"/>
</svg>